<?xml version="1.0" standalone="no"?><!DOCTYPE svg PUBLIC "-//W3C//DTD SVG 1.1//EN" "http://www.w3.org/Graphics/SVG/1.1/DTD/svg11.dtd"><svg class="icon" width="48px" height="48.00px" viewBox="0 0 1024 1024" version="1.1" xmlns="http://www.w3.org/2000/svg"><path d="M716.8 51.2H307.2c-141.38368 0-256 114.61632-256 256v409.6c0 141.38368 114.61632 256 256 256h409.6c141.38368 0 256-114.61632 256-256V307.2c0-141.38368-114.61632-256-256-256zM351.88224 751.104c-27.90912 0-50.69312-5.12-69.12512-24.064l28.67712-28.672c9.472 9.472 26.112 12.8 40.704 12.8 17.664 0 26.11712-5.888 26.11712-16.38912 0-4.352-1.024-7.936-3.584-10.752-2.304-2.304-6.144-4.096-12.032-4.864l-22.016-3.07712c-16.128-2.29888-28.416-7.68-36.608-16.12288-8.448-8.704-12.544-20.99712-12.544-36.608 0-33.28512 25.088-57.60512 66.56-57.60512 26.11712 0 45.82912 6.144 61.44512 21.76l-28.16 28.16512c-11.52-11.52512-26.624-10.75712-34.56-10.75712-15.616 0-22.016 8.96-22.016 16.90112 0 2.29888 0.768 5.632 3.584 8.448 2.304 2.29888 6.144 4.60288 12.544 5.37088l22.016 3.07712c16.384 2.304 28.16 7.424 35.84 15.104 9.728 9.472 13.568 23.04 13.568 39.94112-0.01024 37.12-32.01024 57.344-70.41024 57.344z m174.84288-1.536h-33.28l-60.16-182.28224h46.34112l30.72 101.888 30.208-101.888h46.59712L526.72512 749.568z m210.94912-79.616c0 29.44-4.608 46.59712-18.432 60.67712-15.616 16.128-33.02912 20.48-52.99712 20.48-21.248 0-37.38112-7.16288-50.69312-20.48-19.2-19.20512-18.432-44.80512-18.432-72.19712 0-27.39712-0.768-53.00224 18.432-72.20224 13.312-13.312 28.67712-20.48 50.69312-20.48 46.848 0 66.82112 30.46912 71.17312 60.42112h-45.06112c-3.584-13.824-10.752-20.48-26.112-20.48-8.192 0-14.336 3.57888-17.664 7.936-4.096 5.376-6.656 11.52512-6.656 44.80512s2.56 39.68 6.656 45.06112c3.328 4.352 9.472 7.68 17.664 7.68 9.472 0 15.872-2.82112 19.968-7.168 5.12-5.12 6.912-12.544 6.912-19.46112v-2.56h-26.88v-37.38112h71.42912v25.34912zM885.76 445.44h-102.4c-113.10592 0-204.8-91.68896-204.8-204.8V138.24h102.4c113.10592 0 204.8 91.68896 204.8 204.8v102.4z" /></svg>