<?xml version="1.0" standalone="no"?><!DOCTYPE svg PUBLIC "-//W3C//DTD SVG 1.1//EN" "http://www.w3.org/Graphics/SVG/1.1/DTD/svg11.dtd"><svg class="icon" width="48px" height="48.00px" viewBox="0 0 1024 1024" version="1.1" xmlns="http://www.w3.org/2000/svg"><path d="M387.33312 685.056h31.74912l-15.36512-48.64512zM716.8 51.2H307.2c-141.38368 0-256 114.61632-256 256v409.6c0 141.38368 114.61632 256 256 256h409.6c141.38368 0 256-114.61632 256-256V307.2c0-141.38368-114.61632-256-256-256zM439.30624 749.568l-8.448-27.14112H374.78912l-8.96 27.14112H318.976l66.30912-182.28224h34.56L486.15424 749.568h-46.848z m131.328 0h-33.28l-60.16-182.28224h46.34112l30.72 101.888 30.208-101.888h46.59712L570.63424 749.568z m123.648 0h-44.8v-182.28224h44.8V749.568zM885.76 445.44h-102.4c-113.10592 0-204.8-91.68896-204.8-204.8V138.24h102.4c113.10592 0 204.8 91.68896 204.8 204.8v102.4z" /></svg>