<?xml version="1.0" standalone="no"?><!DOCTYPE svg PUBLIC "-//W3C//DTD SVG 1.1//EN" "http://www.w3.org/Graphics/SVG/1.1/DTD/svg11.dtd"><svg class="icon" width="48px" height="48.00px" viewBox="0 0 1024 1024" version="1.1" xmlns="http://www.w3.org/2000/svg"><path d="M716.8 51.2H307.2c-141.38368 0-256 114.61632-256 256v409.6c0 141.38368 114.61632 256 256 256h409.6c141.38368 0 256-114.61632 256-256V307.2c0-141.38368-114.61632-256-256-256zM469.00736 669.952c0 29.44-4.60288 46.59712-18.43712 60.67712-15.616 16.128-33.024 20.48-52.992 20.48-21.248 0-37.38112-7.16288-50.69312-20.48-19.2-19.20512-18.43712-44.80512-18.43712-72.19712 0-27.39712-0.76288-53.00224 18.43712-72.20224 13.31712-13.312 28.67712-20.48 50.69312-20.48 46.848 0 66.82112 30.46912 71.168 60.42112h-45.06112c-3.584-13.824-10.752-20.48-26.112-20.48-8.19712 0-14.34112 3.57888-17.66912 7.936-4.096 5.376-6.656 11.52512-6.656 44.80512s2.56 39.68 6.656 45.06112c3.328 4.352 9.47712 7.68 17.66912 7.68 9.472 0 15.872-2.82112 19.96288-7.168 5.12-5.12 6.91712-12.544 6.91712-19.46112v-2.56h-26.88v-37.38112h71.424v25.34912zM544.768 749.568h-44.8v-182.28224h44.8V749.568z m160.77312-142.34112H626.432v32.00512h67.58912v39.936H626.432v70.4h-44.8v-182.28224h123.90912v39.94112zM885.76 445.44h-102.4c-113.11104 0-204.8-91.68896-204.8-204.8V138.24h102.4c113.11104 0 204.8 91.68896 204.8 204.8v102.4z" /></svg>