<?xml version="1.0" standalone="no"?><!DOCTYPE svg PUBLIC "-//W3C//DTD SVG 1.1//EN" "http://www.w3.org/Graphics/SVG/1.1/DTD/svg11.dtd"><svg class="icon" width="48px" height="48.00px" viewBox="0 0 1024 1024" version="1.1" xmlns="http://www.w3.org/2000/svg"><path d="M716.8 51.2H307.2c-141.38368 0-256 114.61632-256 256v409.6c0 141.38368 114.61632 256 256 256h409.6c141.38368 0 256-114.61632 256-256V307.2c0-141.38368-114.61632-256-256-256zM465.93024 607.22688h-44.8V749.568h-44.8v-142.34624h-44.8v-39.936h134.40512v39.94112z m70.90688 142.34112h-44.8v-182.28224h44.8V749.568z m160.768-142.34112H618.496v32.00512h67.58912v39.936H618.496v70.4h-44.8v-182.28224h123.91424v39.94112zM885.76 445.44h-102.4c-113.10592 0-204.8-91.68896-204.8-204.8V138.24h102.4c113.10592 0 204.8 91.68896 204.8 204.8v102.4z" /></svg>