<?xml version="1.0" standalone="no"?><!DOCTYPE svg PUBLIC "-//W3C//DTD SVG 1.1//EN" "http://www.w3.org/Graphics/SVG/1.1/DTD/svg11.dtd"><svg class="icon" width="48px" height="48.00px" viewBox="0 0 1024 1024" version="1.1" xmlns="http://www.w3.org/2000/svg"><path d="M556.42112 607.47776h-25.344v36.86912h25.344c12.288 0 19.46112-8.96 19.46112-18.43712s-7.17312-18.432-19.46112-18.432zM716.8 51.2H307.2c-141.38368 0-256 114.61632-256 256v409.6c0 141.38368 114.61632 256 256 256h409.6c141.38368 0 256-114.61632 256-256V307.2c0-141.38368-114.61632-256-256-256zM449.41824 749.568h-44.8v-87.296l-25.86112 45.06112h-28.67712l-25.856-45.06112v87.296h-44.80512v-182.28224h44.03712l40.96 80.384 40.96512-80.384h44.03712V749.568z m109.05088-65.02912h-27.39712V749.568h-44.80512v-182.28224h72.20224c40.448 0 62.208 28.672 62.208 58.624s-21.75488 58.62912-62.208 58.62912z m205.57312 40.96512h-13.568v24.064h-39.94112v-24.064h-75.52v-39.94112l60.42112-118.27712h46.08l-60.42112 118.27712h29.44v-24.064h39.94112v24.064h13.568v39.94112zM885.76 445.44h-102.4c-113.11104 0-204.8-91.68896-204.8-204.8V138.24h102.4c113.11104 0 204.8 91.68896 204.8 204.8v102.4z" /></svg>