<?xml version="1.0" standalone="no"?><!DOCTYPE svg PUBLIC "-//W3C//DTD SVG 1.1//EN" "http://www.w3.org/Graphics/SVG/1.1/DTD/svg11.dtd"><svg class="icon" width="48px" height="48.00px" viewBox="0 0 1024 1024" version="1.1" xmlns="http://www.w3.org/2000/svg"><path d="M634.50112 607.47776h-25.34912v36.86912h25.34912c12.288 0 19.456-8.96 19.456-18.43712s-7.168-18.432-19.456-18.432zM716.8 51.2H307.2c-141.37856 0-256 114.61632-256 256v409.6c0 141.38368 114.62144 256 256 256h409.6c141.3888 0 256-114.61632 256-256V307.2c0-141.38368-114.6112-256-256-256zM456.58624 602.10688L386.43712 709.632h70.14912v39.94112H332.928V714.752l69.89312-107.52512H336v-39.936h120.58112v34.816z m70.90688 147.46112h-44.8v-182.28224h44.8V749.568z m109.056-65.02912h-27.39712V749.568h-44.8v-182.28224h72.19712c40.448 0 62.21312 28.672 62.21312 58.624s-21.76512 58.62912-62.21312 58.62912zM885.76 445.44h-102.4c-113.11104 0-204.8-91.68896-204.8-204.8V138.24h102.4c113.11104 0 204.8 91.68896 204.8 204.8v102.4z" /></svg>