<?xml version="1.0" standalone="no"?><!DOCTYPE svg PUBLIC "-//W3C//DTD SVG 1.1//EN" "http://www.w3.org/Graphics/SVG/1.1/DTD/svg11.dtd"><svg class="icon" width="48px" height="48.00px" viewBox="0 0 1024 1024" version="1.1" xmlns="http://www.w3.org/2000/svg"><path d="M507.39712 607.47776H482.048v36.86912h25.34912c12.288 0 19.456-8.96 19.456-18.43712s-7.168-18.432-19.456-18.432zM716.8 51.2H307.2c-141.38368 0-256 114.61632-256 256v409.6c0 141.38368 114.61632 256 256 256h409.6c141.38368 0 256-114.61632 256-256V307.2c0-141.38368-114.61632-256-256-256zM402.95424 687.09888c0 43.26912-34.304 64.00512-68.608 64.00512-21.248 0-34.82112-5.12-49.66912-19.96288l29.44-29.18912c5.632 5.632 10.24 9.22112 20.22912 9.22112 13.824 0 23.808-7.68 23.808-25.088V567.296h44.8v119.80288z m106.49088-2.56H482.048V749.568H437.248v-182.28224h72.19712c40.448 0 62.21312 28.672 62.21312 58.624s-21.76512 58.62912-62.21312 58.62912z m222.98112-14.58688c0 29.44-4.608 46.59712-18.432 60.67712-15.616 16.128-33.02912 20.48-52.99712 20.48-21.248 0-37.38112-7.16288-50.69312-20.48-19.2-19.20512-18.432-44.80512-18.432-72.19712 0-27.39712-0.768-53.00224 18.432-72.20224 13.312-13.312 28.67712-20.48 50.69312-20.48 46.848 0 66.82112 30.46912 71.17312 60.42112h-45.06112c-3.584-13.824-10.752-20.48-26.112-20.48-8.192 0-14.336 3.57888-17.664 7.936-4.096 5.376-6.656 11.52512-6.656 44.80512s2.56 39.68 6.656 45.06112c3.328 4.352 9.472 7.68 17.664 7.68 9.472 0 15.872-2.82112 19.968-7.168 5.12-5.12 6.912-12.544 6.912-19.46112v-2.56h-26.88v-37.38112h71.42912v25.34912zM885.76 445.44h-102.4c-113.10592 0-204.8-91.68896-204.8-204.8V138.24h102.4c113.10592 0 204.8 91.68896 204.8 204.8v102.4z" /></svg>